<svg width="170" height="132" viewBox="0 0 170 132" fill="none" xmlns="http://www.w3.org/2000/svg">
<g filter="url(#filter0_d_0_1)">
<path d="M41.7713 98.7723C27.4972 92.382 21.2712 88.2283 11.2713 79.6927C1.2714 71.1571 6.27137 64.1278 19.7713 68.6466C33.2713 73.1655 54.7711 91.2408 50.2711 86.2199C45.7711 81.1989 27.7711 48.887 46.2711 22.9559C64.7711 -2.97515 101.664 -6.92574 124.771 22.9559C147.878 52.8376 121.272 86.2201 119.771 88.2283C118.271 90.2366 138.271 74.6716 147.771 68.6466C157.272 62.6216 170.771 60.6132 159.271 77.1822C147.771 93.7512 135.771 98.7723 135.771 98.7723M84.7711 97.2659C84.7514 87.546 100.052 82.7052 102.771 97.2659C105.49 111.827 84.7711 121.869 84.7711 121.869C84.7711 121.869 64.7711 109.818 66.7711 97.2659C68.7711 84.7135 84.7711 90.7387 84.7711 98.7723" stroke="black" stroke-width="3"/>
</g>
<circle cx="66.5" cy="41.5" r="4.5" fill="black"/>
<path d="M83.6375 50.4417C81.7069 47.3035 84.3064 50.9519 84.3064 50.9519" stroke="black" stroke-width="4"/>
<circle cx="107.5" cy="37.5" r="4" fill="black" stroke="black"/>
<path d="M92.5672 50.0028C93.5221 43.2867 92.3974 49.9355 92.3974 49.9355" stroke="black" stroke-width="4"/>
<path d="M92.8888 47C91.6322 58.8182 89.5685 60.7988 83.1487 49.4759" stroke="black" stroke-width="4.3"/>
<path d="M85.9999 98.5C88.4999 85 100.5 89 101.5 98.5C102.5 108 86.485 120.655 84.9999 120C83.5148 119.345 67 106.5 67.7499 98.5C68.4997 90.5 78.5 89 83.4999 98.5" stroke="#FF0101" stroke-linecap="round"/>
<path d="M86 99C86.2761 99 86.5 98.7761 86.5 98.5C86.5 98.2239 86.2761 98 86 98V99ZM83.5 99H86V98H83.5V99Z" fill="#FF0000"/>
<path d="M86.6572 94.8167C86.9982 93.8791 87.5338 93.0242 88.2287 92.3083C89.0619 91.4501 90.0991 90.8172 91.2435 90.4689L92.6605 90.0376C93.9828 89.6351 95.4126 89.7982 96.6103 90.4881C97.1966 90.8258 97.7082 91.2789 98.1141 91.8202L98.9184 92.8926C99.9586 94.2796 100.673 95.8833 101.008 97.5844L101.033 97.7142C101.753 101.373 100.748 105.16 98.3068 107.98L92.2037 115.03C91.0758 116.333 89.7279 117.428 88.2214 118.265L86.5488 119.194C86.1847 119.397 85.7887 119.535 85.3779 119.603C83.9354 119.844 82.4888 119.199 81.7037 117.965L80.9923 116.847C80.0505 115.367 79.8499 113.534 80.4495 111.885L86.6572 94.8167Z" fill="#FF1111"/>
<path d="M68.7255 97.1167C68.6271 97.2841 68.3887 97.2733 68.3466 97.0838C67.938 95.2453 70.7215 92.8836 73.7129 92.1528C74.2286 92.0268 74.7551 91.8297 75.2813 91.8995C77.5875 92.2053 82.1941 96.4835 83.8979 98.7309C84.1563 99.0718 84.7023 99.0959 84.9539 98.75C85.2055 98.4041 85.6675 98.4685 85.7237 98.8925C86.2658 102.984 84.7057 117.254 82.8565 118.23C80.8764 119.274 62.3637 99.1168 68.469 96.7946C68.6673 96.7192 68.8331 96.9338 68.7255 97.1167Z" fill="#FF1111"/>
<defs>
<filter id="filter0_d_0_1" x="0.500488" y="0.499969" width="168.69" height="131.073" filterUnits="userSpaceOnUse" color-interpolation-filters="sRGB">
<feFlood flood-opacity="0" result="BackgroundImageFix"/>
<feColorMatrix in="SourceAlpha" type="matrix" values="0 0 0 0 0 0 0 0 0 0 0 0 0 0 0 0 0 0 127 0" result="hardAlpha"/>
<feOffset dy="4"/>
<feGaussianBlur stdDeviation="2"/>
<feComposite in2="hardAlpha" operator="out"/>
<feColorMatrix type="matrix" values="0 0 0 0 0 0 0 0 0 0 0 0 0 0 0 0 0 0 0.25 0"/>
<feBlend mode="normal" in2="BackgroundImageFix" result="effect1_dropShadow_0_1"/>
<feBlend mode="normal" in="SourceGraphic" in2="effect1_dropShadow_0_1" result="shape"/>
</filter>
</defs>
</svg>
